# xmcd
# 
# Track frame offsets:
#     150
#     17215
#     40181
#     53285
#     71588
#     92833
#     109925
#     125176
#     139572
#     152995
# 
# Disc length: 2474
# 
# Revision: 0
# Processed by: cddbd v1.5.2PL0 Copyright (c) Steve Scherf et al.
# Submitted via: fre:ac v1.0.27
# 
DISCID=8609a80a
DTITLE=Y and T - Earthshaker
DYEAR=1981
DGENRE=Hard Rock
TTITLE0=Hungry For Rock
TTITLE1=Dirty Girl
TTITLE2=Shake It Loose
TTITLE3=Squeeze
TTITLE4=Rescue Me
TTITLE5=Young And Tough
TTITLE6=Hurricane
TTITLE7=Let Me Go
TTITLE8=Knock You Out
TTITLE9=I Believe In You
EXTD=YEAR: 1981
EXTT0=
EXTT1=
EXTT2=
EXTT3=
EXTT4=
EXTT5=
EXTT6=
EXTT7=
EXTT8=
EXTT9=
PLAYORDER=
